<?xml version="1.0" standalone="no"?>
<!DOCTYPE svg PUBLIC "-//W3C//DTD SVG 20010904//EN"
 "http://www.w3.org/TR/2001/REC-SVG-20010904/DTD/svg10.dtd">
<svg version="1.0" xmlns="http://www.w3.org/2000/svg"
 width="1600.000000pt" height="1600.000000pt" viewBox="0 0 1600.000000 1600.000000"
 preserveAspectRatio="xMidYMid meet">
<metadata>
Created by potrace 1.14, written by Peter Selinger 2001-2017
</metadata>
<g transform="translate(0.000000,1600.000000) scale(0.100000,-0.100000)"
fill="#000000" stroke="none">
<path d="M7827 14664 c-1 -1 -72 -5 -157 -8 -85 -4 -168 -8 -185 -11 -16 -2
-66 -7 -110 -10 -44 -3 -132 -12 -195 -21 -63 -9 -126 -17 -140 -18 -93 -11
-401 -70 -570 -110 -260 -61 -704 -198 -840 -258 -19 -9 -73 -31 -120 -49 -47
-18 -123 -50 -170 -71 -47 -21 -107 -49 -135 -61 -100 -44 -393 -196 -493
-256 -57 -34 -105 -61 -108 -61 -3 0 -65 -39 -249 -158 -159 -103 -330 -228
-530 -386 -235 -186 -635 -570 -825 -791 -52 -60 -97 -112 -101 -115 -17 -14
-247 -311 -322 -417 -227 -318 -504 -793 -634 -1088 -12 -28 -36 -81 -54 -120
-174 -387 -376 -1037 -435 -1404 -3 -18 -8 -43 -10 -55 -28 -141 -71 -447 -80
-566 -3 -41 -7 -91 -9 -110 -23 -216 -23 -836 0 -1040 2 -19 6 -66 9 -105 4
-38 8 -86 11 -105 2 -19 9 -75 15 -125 9 -76 21 -155 56 -360 3 -16 9 -48 14
-70 5 -22 12 -55 15 -73 13 -74 79 -337 125 -497 74 -254 204 -615 290 -800
15 -33 42 -94 60 -135 67 -152 319 -617 388 -717 11 -15 60 -89 108 -162 110
-167 108 -164 168 -248 109 -150 316 -404 461 -563 83 -92 405 -411 490 -485
44 -38 89 -78 100 -89 120 -110 508 -401 695 -521 58 -37 118 -76 133 -86 52
-37 332 -195 487 -276 364 -188 803 -361 1204 -474 99 -28 191 -53 205 -55 14
-3 33 -7 41 -10 8 -3 26 -8 40 -10 14 -3 61 -14 105 -24 81 -19 116 -26 170
-36 17 -2 66 -12 110 -20 44 -8 96 -17 115 -20 84 -10 116 -15 130 -19 8 -2
46 -7 85 -10 38 -4 72 -8 75 -10 3 -2 46 -6 95 -10 50 -3 104 -8 120 -10 188
-23 874 -23 1040 0 17 2 66 7 110 10 44 3 132 12 195 21 63 9 126 17 140 18
168 19 601 111 845 181 259 73 640 209 845 302 36 17 90 41 120 54 89 39 397
197 500 257 401 232 729 462 1055 741 153 131 186 163 375 351 170 170 231
235 335 355 28 32 55 63 60 69 6 6 47 56 90 111 43 55 81 102 85 105 3 3 18
23 35 45 16 22 33 45 38 50 26 32 161 226 222 320 112 172 165 255 165 259 0
3 27 51 61 108 59 100 211 392 256 493 13 28 39 86 59 130 207 457 380 1040
475 1606 17 106 49 354 55 429 3 41 7 91 9 110 23 217 23 832 0 1040 -2 19 -6
69 -10 110 -5 69 -40 348 -49 395 -3 19 -10 59 -20 120 -36 212 -92 453 -160
690 -45 158 -148 467 -178 535 -9 19 -32 76 -52 127 -145 373 -430 904 -670
1247 -22 32 -48 69 -56 81 -62 94 -284 380 -384 495 -26 30 -73 84 -105 120
-86 99 -425 437 -526 525 -49 43 -106 92 -125 109 -28 25 -175 144 -270 219
-448 351 -1066 699 -1635 920 -241 94 -666 229 -820 261 -51 11 -77 16 -160
36 -81 19 -115 26 -170 36 -16 2 -68 12 -115 21 -47 9 -92 17 -100 18 -8 1
-42 5 -75 10 -33 4 -67 9 -75 10 -8 2 -44 6 -80 10 -36 4 -73 9 -83 11 -10 2
-53 6 -95 9 -42 4 -93 8 -112 10 -122 12 -683 28 -693 19z m-161 -862 c0 -90
-2 -165 -5 -166 -3 -2 -35 -7 -71 -10 -36 -4 -78 -9 -95 -11 -16 -2 -57 -7
-90 -10 -63 -7 -110 -12 -160 -20 -16 -3 -48 -7 -70 -10 -38 -6 -168 -27 -365
-61 -127 -21 -143 -24 -166 -29 -12 -3 -39 -7 -60 -11 -52 -8 -54 -10 -43 -42
9 -24 174 -641 184 -684 2 -10 16 -62 30 -115 30 -109 36 -131 38 -152 1 -10
-40 -27 -138 -57 -448 -135 -891 -346 -1240 -589 -126 -88 -221 -157 -250
-183 -17 -15 -58 -49 -93 -77 -35 -27 -82 -67 -105 -89 -23 -21 -76 -70 -118
-108 -42 -39 -79 -71 -82 -72 -3 0 -45 35 -94 79 -48 44 -146 134 -218 199
-71 66 -175 161 -229 210 -54 50 -104 96 -110 101 -6 6 -35 32 -64 58 l-52 48
-26 -28 c-14 -15 -49 -53 -78 -83 -155 -161 -402 -469 -570 -708 -39 -56 -62
-80 -70 -74 -6 5 -66 50 -134 101 l-123 92 68 97 c273 395 591 757 939 1070
193 174 492 404 709 544 162 105 430 262 437 257 2 -1 21 9 44 23 85 54 498
242 609 278 22 7 45 16 50 20 6 4 96 35 200 70 105 34 201 65 215 70 14 5 39
12 55 16 17 4 35 8 40 10 124 35 392 97 515 119 210 36 301 49 425 61 39 3 72
8 75 9 3 2 57 7 120 10 63 4 116 8 118 10 1 1 13 2 25 1 22 -1 22 -3 23 -164z
m824 153 c52 -3 109 -7 125 -9 17 -2 59 -7 95 -11 36 -3 76 -8 90 -10 14 -2
45 -7 70 -10 25 -3 70 -10 100 -15 30 -5 69 -11 85 -14 75 -12 144 -25 190
-36 28 -7 64 -14 80 -17 17 -2 75 -16 130 -30 55 -14 105 -26 110 -27 6 -1 37
-10 70 -20 33 -10 67 -19 75 -21 61 -12 351 -113 550 -192 154 -61 535 -242
660 -314 687 -393 1198 -825 1709 -1444 52 -63 229 -306 294 -404 l77 -114
-148 -83 -147 -82 -20 23 c-11 13 -42 56 -70 96 -78 114 -230 314 -323 424
-116 136 -284 316 -294 313 -4 -2 -170 -164 -367 -362 -274 -273 -363 -356
-374 -350 -9 5 -51 43 -94 85 -90 86 -325 282 -428 354 -38 28 -83 60 -100 72
-30 22 -270 174 -323 204 -74 42 -266 140 -337 171 -44 20 -100 45 -125 56
-64 30 -325 126 -395 146 -33 10 -97 28 -141 42 l-81 24 22 83 c40 146 126
465 130 484 3 17 26 101 86 322 29 106 28 120 -8 121 -19 0 -26 2 -51 11 -12
5 -33 11 -45 13 -12 3 -65 15 -117 27 -52 12 -104 23 -115 24 -11 2 -85 15
-165 29 -80 14 -172 28 -205 31 -132 12 -204 17 -290 20 -49 2 -94 4 -100 4
-6 1 -9 71 -8 193 2 229 0 208 16 203 6 -2 55 -6 107 -10z m-194 -2300 c115
-10 124 -11 190 -20 126 -17 160 -24 284 -57 63 -16 125 -32 138 -35 12 -3 22
-10 22 -16 0 -6 -34 -135 -76 -286 -41 -152 -88 -325 -104 -386 -17 -60 -68
-249 -114 -420 -46 -170 -86 -319 -89 -330 -2 -11 -14 -53 -25 -93 -16 -54
-18 -74 -9 -77 124 -36 167 -49 192 -58 17 -7 35 -10 42 -9 7 1 75 -29 152
-68 121 -60 175 -93 251 -153 8 -7 36 -23 63 -37 26 -14 64 -41 85 -60 20 -19
52 -46 70 -59 l34 -24 579 579 c318 319 583 578 588 577 5 -1 33 -28 63 -59
29 -31 58 -62 63 -68 6 -6 45 -51 86 -101 288 -344 532 -791 666 -1220 13 -44
31 -100 39 -124 10 -32 11 -47 3 -52 -9 -5 -279 -79 -379 -104 -43 -11 -579
-156 -605 -164 -16 -5 -159 -44 -317 -87 l-287 -77 13 -32 c8 -18 17 -52 20
-76 3 -24 12 -64 20 -89 18 -60 16 -720 -2 -763 -7 -16 -14 -46 -16 -68 l-4
-38 52 -15 c28 -8 96 -26 151 -41 55 -14 123 -33 150 -41 28 -8 210 -57 405
-110 346 -93 394 -106 665 -180 72 -19 138 -37 149 -39 10 -3 21 -6 23 -9 11
-11 -90 -316 -160 -486 -42 -100 -187 -386 -234 -461 -168 -268 -289 -426
-475 -624 l-57 -60 -583 583 -584 583 -103 -105 c-57 -57 -122 -114 -145 -126
-66 -35 -111 -63 -144 -91 -17 -15 -66 -41 -109 -58 -43 -18 -87 -36 -98 -41
-81 -37 -141 -60 -173 -67 -20 -4 -40 -8 -44 -9 -5 -1 -25 -2 -46 -3 l-39 -1
84 -307 c46 -170 96 -357 112 -418 16 -60 46 -168 65 -240 20 -71 59 -215 87
-320 28 -104 59 -217 69 -250 l17 -59 -25 -14 c-32 -16 -184 -65 -268 -86
-280 -71 -666 -89 -1073 -51 -41 4 -84 9 -95 11 -12 2 -41 7 -66 10 -25 3 -72
12 -105 20 -33 8 -69 16 -80 18 -11 2 -57 14 -103 27 -79 21 -82 23 -78 48 5
25 42 162 251 931 53 195 105 387 115 425 10 39 27 103 39 143 15 54 17 74 8
77 -124 36 -167 49 -192 58 -16 7 -35 11 -41 9 -7 -1 -64 24 -128 55 -159 79
-164 83 -226 129 -30 22 -87 59 -126 82 -66 38 -164 130 -164 154 0 5 -5 8
-10 6 -6 -2 -271 -263 -589 -581 l-578 -578 -85 93 c-162 176 -313 374 -428
563 -123 201 -222 404 -305 625 -65 174 -117 348 -106 354 5 3 341 95 796 217
61 16 142 38 180 49 39 11 120 33 180 49 107 28 233 62 365 98 58 16 65 21 68
46 2 15 -4 53 -14 85 -24 83 -25 686 0 778 22 86 21 110 -6 117 -28 7 -148 39
-248 67 -41 11 -82 22 -90 24 -73 19 -423 114 -615 167 -60 17 -117 32 -125
34 -8 2 -35 9 -60 16 -25 7 -50 13 -56 15 -6 1 -38 10 -70 19 -33 9 -66 19
-74 20 -24 6 -131 35 -188 51 -35 11 -52 20 -49 29 3 7 15 46 27 86 76 261
255 670 372 850 19 30 57 88 83 129 42 66 188 266 204 280 3 3 22 25 42 50 66
80 186 209 199 213 5 1 270 -259 589 -577 l580 -580 91 90 c50 49 104 96 119
104 116 62 178 99 206 123 18 15 35 27 38 27 3 0 52 22 109 49 242 114 284
133 311 138 19 4 26 10 23 22 -13 39 -189 690 -198 726 -5 22 -18 71 -29 109
-12 38 -22 76 -24 85 -2 9 -26 101 -55 205 -28 104 -53 196 -55 205 -2 9 -18
67 -35 129 -18 63 -28 117 -24 121 41 36 320 117 464 136 30 4 64 9 75 11 11
3 72 7 135 11 63 3 116 7 117 7 6 5 359 -3 429 -9z m5109 -1067 c83 -175 160
-350 209 -483 21 -55 42 -109 47 -120 27 -61 152 -476 173 -576 3 -13 21 -96
40 -184 19 -88 37 -182 41 -209 3 -27 8 -52 9 -55 2 -3 6 -28 10 -56 3 -27 8
-66 11 -85 11 -84 15 -119 21 -175 3 -33 7 -71 9 -84 25 -159 26 -967 1 -1097
-2 -10 -7 -57 -11 -104 -4 -47 -8 -87 -10 -90 -1 -3 -6 -36 -10 -75 -4 -38 -8
-72 -10 -75 -2 -4 -6 -26 -9 -51 -3 -24 -8 -55 -11 -69 -3 -14 -10 -52 -15
-85 -15 -85 -56 -269 -86 -383 -98 -377 -204 -664 -382 -1034 l-95 -198 -76
41 c-42 23 -107 59 -146 80 -38 21 -71 42 -73 48 -2 6 14 48 36 94 22 45 54
116 71 157 18 41 36 84 41 95 78 172 249 701 232 716 -4 4 -74 25 -157 48
-203 54 -347 92 -365 96 -35 9 -328 86 -355 95 -16 5 -49 14 -73 20 -23 6 -40
14 -38 19 3 4 7 18 9 32 3 13 13 53 22 89 23 89 23 86 56 260 16 85 34 193 40
240 6 47 12 96 15 110 11 71 19 259 19 465 -1 200 -5 289 -20 412 -2 16 -6 57
-9 93 -4 36 -8 75 -10 85 -2 11 -7 43 -10 70 -4 28 -9 57 -11 65 -2 8 -6 33
-9 55 -4 22 -18 109 -32 193 -15 84 -25 154 -23 156 2 2 226 77 497 167 274
91 492 169 492 175 0 7 -20 79 -45 161 -53 173 -50 164 -58 183 -3 8 -23 65
-45 125 -22 61 -59 153 -82 205 -23 52 -44 104 -47 115 -4 11 -38 82 -76 158
-40 79 -66 142 -61 147 10 10 276 160 285 160 3 0 36 -64 74 -142z m-10611 41
c56 -31 117 -65 137 -76 l37 -19 -20 -40 c-79 -162 -183 -412 -237 -574 -18
-52 -36 -104 -41 -115 -20 -45 -103 -335 -98 -340 2 -1 217 -73 478 -160 261
-87 485 -161 497 -166 22 -8 22 -9 8 -56 -16 -53 -71 -322 -79 -393 -3 -25 -9
-74 -12 -110 -3 -36 -7 -78 -9 -95 -24 -195 -24 -692 0 -890 2 -16 6 -55 10
-85 6 -51 28 -190 40 -250 3 -14 10 -52 16 -85 5 -33 17 -87 26 -120 8 -33 17
-71 20 -85 2 -14 10 -50 18 -80 8 -30 13 -55 12 -56 -1 -1 -126 -39 -277 -84
-151 -45 -286 -85 -300 -90 -14 -5 -110 -34 -215 -65 -104 -31 -193 -60 -196
-63 -4 -4 4 -43 17 -87 13 -44 31 -102 38 -130 47 -167 187 -532 279 -726 30
-63 52 -117 50 -121 -4 -8 -325 -170 -328 -166 -3 5 -156 340 -171 373 -144
339 -291 801 -369 1165 -17 79 -18 85 -35 180 -6 33 -13 70 -15 82 -3 13 -7
39 -9 58 -3 19 -10 68 -16 109 -5 40 -13 99 -16 130 -3 31 -8 70 -9 86 -26
235 -26 915 0 1067 2 13 9 70 15 128 6 58 13 116 15 130 2 14 6 43 10 65 16
109 56 322 80 425 2 8 8 38 15 65 83 370 272 886 440 1205 16 30 37 72 46 92
19 43 12 45 148 -33z m562 -5811 c97 -140 247 -337 344 -453 117 -139 291
-326 302 -323 4 2 170 164 367 362 198 197 364 357 370 355 5 -2 43 -37 85
-77 101 -97 304 -265 407 -337 46 -33 86 -61 89 -65 17 -18 237 -156 376 -236
79 -45 389 -199 489 -244 66 -29 280 -109 400 -150 159 -53 154 -47 128 -160
-7 -30 -15 -68 -18 -85 -2 -16 -7 -41 -10 -55 -3 -14 -8 -38 -11 -55 -3 -16
-21 -111 -40 -210 -20 -99 -38 -191 -40 -205 -3 -14 -16 -81 -29 -149 -14 -69
-25 -134 -25 -146 0 -22 -7 -19 245 -81 18 -4 53 -11 150 -29 17 -3 41 -8 55
-11 27 -6 31 -7 135 -23 148 -23 341 -38 521 -41 20 0 20 -5 19 -177 -1 -98
-3 -181 -3 -186 -1 -4 -14 -5 -29 -3 -16 3 -73 7 -128 11 -55 3 -111 8 -125
10 -14 2 -54 6 -90 10 -36 4 -76 8 -90 10 -14 2 -45 7 -70 10 -25 4 -54 8 -65
10 -26 3 -106 16 -125 19 -8 2 -33 6 -55 10 -22 4 -71 14 -110 23 -38 8 -83
17 -100 20 -16 2 -75 16 -130 30 -55 14 -108 26 -118 28 -10 2 -32 9 -50 14
-18 6 -106 33 -197 62 -205 63 -435 150 -628 235 -152 68 -438 212 -510 258
-23 14 -43 26 -46 26 -18 0 -343 211 -511 333 -341 247 -776 650 -995 920 -14
17 -39 47 -55 67 -97 112 -248 314 -358 479 l-76 114 147 83 c81 46 148 83
149 84 1 0 27 -37 59 -82z m9379 33 c3 -6 56 -37 118 -70 167 -89 160 -67 62
-206 -100 -143 -90 -129 -216 -291 -191 -245 -487 -560 -703 -750 -43 -38 -88
-78 -100 -89 -12 -11 -41 -36 -66 -55 -25 -19 -54 -42 -65 -51 -430 -354 -947
-658 -1484 -875 -350 -142 -848 -289 -1119 -330 -20 -3 -56 -10 -80 -15 -23
-5 -59 -12 -80 -15 -20 -3 -47 -7 -58 -9 -12 -2 -48 -7 -80 -10 -33 -4 -67 -9
-78 -11 -19 -3 -90 -12 -161 -19 -22 -2 -83 -7 -135 -11 -52 -3 -109 -7 -126
-9 l-31 -3 0 165 c0 90 3 166 7 168 3 2 40 6 81 10 100 7 221 19 329 31 103
11 210 25 235 30 11 3 36 7 55 10 19 2 46 7 60 9 14 3 41 7 60 10 19 3 96 19
171 36 l136 32 -33 126 c-19 69 -48 178 -65 241 -17 63 -44 162 -59 220 -15
58 -44 168 -65 245 -20 77 -38 147 -40 155 -2 13 78 42 205 75 50 13 312 109
395 145 28 12 77 34 110 48 96 42 320 159 418 218 50 30 94 54 99 54 4 0 8 3
8 8 0 4 17 16 37 27 108 57 466 331 603 462 36 34 85 80 110 102 l44 40 31
-27 c16 -15 37 -34 46 -42 9 -8 60 -55 114 -105 55 -49 106 -97 115 -105 18
-17 229 -209 246 -225 6 -5 33 -30 60 -55 27 -25 73 -66 102 -93 l52 -47 67
71 c38 40 77 82 88 93 57 60 203 236 291 351 110 143 105 136 188 258 56 82
84 104 101 78z"/>
</g>
</svg>
